<svg width="23" height="26" viewBox="0 0 23 26" fill="none" xmlns="http://www.w3.org/2000/svg">
<path d="M21.5482 9.07537C21.4312 9.14362 18.6465 10.5838 18.6465 13.777C18.7777 17.4187 22.1607 18.6958 22.2188 18.6958C22.1607 18.7641 21.708 20.4356 20.367 22.1877C19.3027 23.697 18.1215 25.2188 16.3277 25.2188C14.6214 25.2188 14.0089 24.2128 12.0402 24.2128C9.92592 24.2128 9.32768 25.2188 7.70893 25.2188C5.91518 25.2188 4.64642 23.6155 3.52414 22.1204C2.06612 20.1635 0.826847 17.0926 0.783097 14.1439C0.753613 12.5815 1.07508 11.0455 1.89112 9.74096C3.04289 7.91968 5.09914 6.68334 7.34466 6.64257C9.06518 6.58851 10.5964 7.74331 11.6464 7.74331C12.6527 7.74331 14.5339 6.64257 16.6625 6.64257C17.5812 6.64345 20.0312 6.90136 21.5482 9.07537ZM11.5009 6.3306C11.1947 4.90371 12.0402 3.47682 12.8277 2.56662C13.8339 1.46587 15.4232 0.71875 16.7937 0.71875C16.8812 2.14564 16.3268 3.54506 15.3357 4.56427C14.4464 5.66501 12.9152 6.49367 11.5009 6.3306Z" fill="white"/>
</svg>
